<svg width="132" height="42" viewBox="0 0 132 42" fill="none" xmlns="http://www.w3.org/2000/svg">
<path d="M51.5566 17.2656C53.9824 17.2656 55.998 18.0684 57.6035 19.6738C59.2207 21.2793 60.0293 23.2949 60.0293 25.7207C60.0293 28.2637 59.1445 30.373 57.375 32.0488C55.6172 33.7129 53.3203 34.5449 50.4844 34.5449C49.2891 34.5449 48.1406 34.4043 47.0391 34.123C45.9492 33.8535 45.0586 33.5254 44.3672 33.1387C43.6875 32.752 43.0898 32.3711 42.5742 31.9961C42.0586 31.6094 41.6953 31.2695 41.4844 30.9766L41.1152 30.5723L44.3672 27.1621C44.5312 27.3496 44.7598 27.584 45.0527 27.8652C45.3574 28.1348 46.0137 28.5039 47.0215 28.9727C48.0293 29.4414 49.0605 29.6758 50.1152 29.6758C51.4629 29.6758 52.5176 29.3125 53.2793 28.5859C54.0527 27.8477 54.4395 26.8926 54.4395 25.7207C54.4395 24.5488 54.0293 23.5645 53.209 22.7676C52.4004 21.9707 51.3691 21.5723 50.1152 21.5723C49.248 21.5723 48.4746 21.7363 47.7949 22.0645C47.1152 22.3926 46.6406 22.7207 46.3711 23.0488L45.9844 23.5586L42.2051 23.207L43.1016 8.79297H58.3945V13.4863H47.9707L47.6016 18.1621C48.5625 17.5645 49.8809 17.2656 51.5566 17.2656ZM70.6289 15.2793C69.5625 16.7207 69.0293 18.7598 69.0293 21.3965C69.0293 24.0332 69.5625 26.0723 70.6289 27.5137C71.6953 28.9551 72.9609 29.6758 74.4258 29.6758C75.8906 29.6758 77.1562 28.9551 78.2227 27.5137C79.2891 26.0723 79.8223 24.0332 79.8223 21.3965C79.8223 18.7598 79.2891 16.7207 78.2227 15.2793C77.1562 13.8379 75.8906 13.1172 74.4258 13.1172C72.9609 13.1172 71.6953 13.8379 70.6289 15.2793ZM82.0723 11.8867C84.1699 14.2891 85.2188 17.459 85.2188 21.3965C85.2188 25.334 84.1699 28.5098 82.0723 30.9238C79.9746 33.3379 77.4258 34.5449 74.4258 34.5449C71.4258 34.5449 68.877 33.3379 66.7793 30.9238C64.6816 28.5098 63.6328 25.334 63.6328 21.3965C63.6328 17.459 64.6816 14.2891 66.7793 11.8867C68.877 9.47266 71.4258 8.26562 74.4258 8.26562C77.4258 8.26562 79.9746 9.47266 82.0723 11.8867ZM96.1875 15.2793C95.1211 16.7207 94.5879 18.7598 94.5879 21.3965C94.5879 24.0332 95.1211 26.0723 96.1875 27.5137C97.2539 28.9551 98.5195 29.6758 99.9844 29.6758C101.449 29.6758 102.715 28.9551 103.781 27.5137C104.848 26.0723 105.381 24.0332 105.381 21.3965C105.381 18.7598 104.848 16.7207 103.781 15.2793C102.715 13.8379 101.449 13.1172 99.9844 13.1172C98.5195 13.1172 97.2539 13.8379 96.1875 15.2793ZM107.631 11.8867C109.729 14.2891 110.777 17.459 110.777 21.3965C110.777 25.334 109.729 28.5098 107.631 30.9238C105.533 33.3379 102.984 34.5449 99.9844 34.5449C96.9844 34.5449 94.4355 33.3379 92.3379 30.9238C90.2402 28.5098 89.1914 25.334 89.1914 21.3965C89.1914 17.459 90.2402 14.2891 92.3379 11.8867C94.4355 9.47266 96.9844 8.26562 99.9844 8.26562C102.984 8.26562 105.533 9.47266 107.631 11.8867ZM124.277 31.8379H120.146V25.7207H114.029V21.2207H120.146V15.1035H124.277V21.2207H130.412V25.7207H124.277V31.8379Z" fill="#F0145A"/>
<path d="M16.097 8.55298C9.25249 8.55298 3.68399 14.1215 3.68399 20.966C3.68399 27.811 9.25249 33.38 16.097 33.38C22.9415 33.38 28.51 27.811 28.51 20.966C28.5105 14.1215 22.942 8.55298 16.097 8.55298ZM22.9555 20.0585V20.059L19.362 22.659L20.746 26.889C20.768 26.955 20.7795 27.0255 20.7795 27.0975C20.7795 27.467 20.4805 27.767 20.111 27.767C19.964 27.767 19.829 27.72 19.719 27.6405L16.0975 25.021L12.476 27.6405C12.366 27.72 12.231 27.767 12.0845 27.767C11.7145 27.767 11.415 27.4675 11.415 27.0975C11.415 27.025 11.427 26.955 11.449 26.889L12.8335 22.659L9.23999 20.059V20.0585C9.07199 19.9375 8.96299 19.74 8.96299 19.517C8.96299 19.1475 9.26199 18.8485 9.63199 18.8485H14.0805L15.458 14.638C15.542 14.3645 15.7965 14.1655 16.098 14.1655C16.399 14.1655 16.654 14.3645 16.7375 14.638L18.115 18.8485H22.5635C22.933 18.8485 23.2325 19.1475 23.2325 19.517C23.232 19.74 23.123 19.9375 22.9555 20.0585Z" fill="#F0145A"/>
</svg>
